# xmcd
#
# Track frame offsets: 
#        150
#        18910
#        34887
#        51054
#        68479
#        83758
#        96332
#        115171
#        131430
#
# Disc length: 2016 seconds
#
# Revision: 0
# Processed by: cddbd v1.5.2PL0 Copyright (c) Steve Scherf et al.
# Submitted via: ExactAudioCopy v1.2
#
DISCID=6a07de09
DTITLE=Dr. Duke Tumatoe - How Much Crazy Can You Take
DYEAR=2017
DGENRE=Blues
TTITLE0=How Much Crazy Can You Take
TTITLE1=Muddy Waters
TTITLE2=Hitch Hike
TTITLE3=One Shovel at a Time
TTITLE4=If You Knew
TTITLE5=What You Do with Your Butt
TTITLE6=Your Picture
TTITLE7=Right Now!
TTITLE8=Whispers
EXTD=
EXTT0=
EXTT1=
EXTT2=
EXTT3=
EXTT4=
EXTT5=
EXTT6=
EXTT7=
EXTT8=
PLAYORDER=
